<svg height="657pt" viewBox="-20 -78 657.33212 657" width="657pt" xmlns="http://www.w3.org/2000/svg"><path d="m457.820312 52.417969c-32.382812 0-58.632812 26.25-58.632812 58.632812 0 32.378907 26.25 58.628907 58.632812 58.628907 32.378907 0 58.628907-26.25 58.628907-58.628907-.03125-32.367187-26.265625-58.597656-58.628907-58.632812zm0 99.796875c-22.734374 0-41.167968-18.433594-41.167968-41.164063 0-22.738281 18.433594-41.167969 41.167968-41.167969 22.734376 0 41.164063 18.429688 41.164063 41.167969-.023437 22.722657-18.4375 41.136719-41.164063 41.164063zm0 0"/><path d="m457.820312-3.742188c-83.902343-.023437-153.261718 65.398438-158.132812 149.160157h-241.0625c-29.460938.042969-54.332031 21.917969-58.128906 51.136719-.4687502 1.332031-.597656 2.753906-.394532 4.148437-.0624995 1.109375-.101562 2.226563-.101562 3.347656v233.8125c-.015625 13.675781 4.777344 26.917969 13.53125 37.425781.679688 1.300782 1.675781 2.410157 2.902344 3.226563 11.027344 11.488281 26.269531 17.984375 42.191406 17.980469h349.296875c15.910156.003906 31.132813-6.476563 42.152344-17.941406.46875-.3125.902343-.664063 1.308593-1.054688.648438-.640625 1.199219-1.382812 1.617188-2.191406 8.769531-10.507813 13.566406-23.761719 13.550781-37.445313v-124.984375c83.3125-4.550781 149.699219-73.761718 149.699219-158.191406-.097656-87.460938-70.972656-158.332031-158.429688-158.429688zm-399.195312 166.625h240.984375c1.878906 37.601563 17.148437 73.28125 43.042969 100.601563 3.867187 4.09375 7.941406 7.984375 12.214844 11.648437l-98.128907 83.230469c-13.476562 11.488281-33.304687 11.5-46.78125.019531l-191.707031-162.328124c3.839844-19.265626 20.734375-33.140626 40.375-33.171876zm399.195312 132.769532c-27.851562.101562-55.09375-8.125-78.230468-23.621094 3.703125-39.007812 36.535156-67.878906 78.230468-67.878906 41.648438 0 74.453126 28.8125 78.214844 67.75-23.132812 15.515625-50.363281 23.777344-78.214844 23.75zm-399.195312 183.378906c-8.910156.003906-17.578125-2.890625-24.699219-8.253906l105.347657-107.75c2.230468-2.222656 3.09375-5.472656 2.261718-8.511719-.839844-3.03125-3.242187-5.382813-6.292968-6.148437-3.054688-.765626-6.285157.167968-8.453126 2.445312l-104.324218 106.703125c-3.289063-6.027344-5.011719-12.785156-5.003906-19.652344v-219.59375l181.210937 153.441407c19.988281 17.019531 49.382813 17.007812 69.359375-.03125l101.027344-85.679688c23.707031 16.125 51.394531 25.425781 80.027344 26.882812v124.980469c.011718 6.890625-1.722657 13.675781-5.039063 19.71875l-104.953125-106.78125c-3.390625-3.378906-8.867188-3.394531-12.277344-.039062-3.414062 3.351562-3.492187 8.828125-.175781 12.277343l105.925781 107.777344c-7.105468 5.339844-15.757812 8.222656-24.644531 8.214844zm493.148438-219.351562c-3.910157-18.378907-13.476563-35.074219-27.351563-47.746094-17.777344-16.28125-41.429687-25.242188-66.601563-25.242188-25.175781 0-48.824218 8.960938-66.601562 25.238282-13.894531 12.695312-23.472656 29.421874-27.371094 47.84375-2.925781-2.632813-5.757812-5.390626-8.5-8.285157-39.449218-41.6875-49.695312-103.125-25.90625-155.359375 23.789063-52.234375 76.859375-84.839844 134.207032-82.445312 57.34375 2.386718 107.519531 39.300781 126.875 93.332031 19.355468 54.03125 4.03125 114.40625-38.75 152.664063zm0 0"/></svg>